<svg id="Layer_1" enable-background="new 0 0 511 511" height="512" viewBox="0 0 511 511" width="512" xmlns="http://www.w3.org/2000/svg"><g><g><g><path d="m481.368 316.015c.226-.872.444-1.751.66-2.63-.214.88-.437 1.755-.66 2.63z" fill="#afe6ff"/></g><g><path d="m244.474 11.026c-94.08 0-152.029 53.063-152.188 53.152-3.631 16.76-9.946 41.082-9.946 58.928 0 135.019 113.861 244.447 248.88 244.447 57.539 0 110.406-26.79 152.167-60.054.17-1.042 5.561-22.508 5.561-52 0-135.018-109.455-244.473-244.474-244.473z" fill="#c14098"/></g><g><path d="m483.387 307.5c-41.761 33.263-94.649 53.152-152.188 53.152-135.019 0-244.474-109.455-244.474-244.474 0-17.847 1.93-35.24 5.561-52-.006.004-.011.009-.017.014-56.224 44.791-92.269 113.836-92.269 191.308 0 135.019 109.455 244.474 244.474 244.474 114.128 0 209.962-78.215 236.894-183.959.223-.875.446-1.751.66-2.63.101-.418 1.023-4.336 1.359-5.885z" fill="#8659b9"/></g></g><g><g><g><path d="m452.67 255.5c0 52.568-19.506 100.58-51.675 137.193-38.11 43.375-93.992 57.839-156.268 57.839-114.844 0-200.942-80.187-200.942-195.031 0-87.36 46.87-162.138 123.205-192.926 24.015-9.686 50.253-15.018 77.737-15.018 114.843 0 207.943 93.099 207.943 207.943z" fill="#f1d333"/></g><g><path d="m353.788 135.918c-2.697 0-5.409-.905-7.647-2.762-2.541-2.109-5.181-4.165-7.846-6.11-5.346-3.902-6.517-11.399-2.615-16.745s11.398-6.518 16.745-2.615c3.064 2.237 6.1 4.601 9.023 7.026 5.093 4.227 5.795 11.782 1.569 16.875-2.37 2.856-5.787 4.331-9.229 4.331z" fill="#f9ef63"/></g><g><path d="m297.743 104.978c-1.231 0-2.483-.191-3.717-.594-15.861-5.17-32.447-7.792-49.3-7.792-12.355 0-24.658 1.421-36.567 4.225-6.442 1.513-12.895-2.477-14.411-8.919-1.517-6.442 2.477-12.895 8.919-14.411 13.706-3.226 27.857-4.862 42.059-4.862 19.379 0 38.466 3.019 56.729 8.973 6.293 2.051 9.731 8.816 7.679 15.108-1.649 5.058-6.344 8.271-11.391 8.272z" fill="#f9ef63"/></g><g><path d="m323.253 407.715c-114.844 0-207.943-93.099-207.943-207.943 0-52.568 19.515-100.572 51.684-137.184-76.334 30.786-130.211 105.552-130.211 192.912 0 114.844 93.099 207.943 207.943 207.943 62.276 0 118.149-27.384 156.259-70.759-24.015 9.686-50.248 15.031-77.732 15.031z" fill="#eab14d"/></g></g><g><path d="m154.302 319.607c-16.782 16.783-43.992 16.783-60.775 0s-16.782-43.992 0-60.775c16.783-16.783 87.215-26.441 87.215-26.441s-9.658 70.434-26.44 87.216z" fill="#9dc6fb"/></g><g><path d="m129.422 312.008c-16.783-16.782-16.783-43.992 0-60.775 6.944-6.944 23.073-12.667 39.597-16.992-20.762 3.55-62.997 12.095-75.493 24.591-16.782 16.783-16.782 43.992 0 60.775 15.386 15.386 39.531 16.655 56.376 3.829-7.504-1.77-14.626-5.575-20.48-11.428z" fill="#61a3e0"/></g><g><path d="m437.638 319.607c16.783 16.783 43.992 16.783 60.775 0s16.783-43.992 0-60.775-87.215-26.441-87.215-26.441 9.658 70.434 26.44 87.216z" fill="#9dc6fb"/></g><g><path d="m472.102 325.489c-16.031-16.031-25.561-81.013-26.382-86.798-18.546-4.107-34.522-6.299-34.522-6.299s9.658 70.433 26.44 87.215c11.116 11.116 26.805 14.861 41.01 11.252-2.31-1.543-4.506-3.33-6.546-5.37z" fill="#61a3e0"/></g><g><path d="m423 192.279c-2.135 0-4.186-1.194-5.18-3.244-5.189-10.7-14.124-20.134-25.159-26.561-6.116-3.562-12.614-6.023-18.793-7.116-3.128-.553-5.215-3.538-4.662-6.667.553-3.128 3.537-5.213 6.667-4.662 7.497 1.327 15.305 4.267 22.579 8.503 12.99 7.566 23.545 18.747 29.721 31.482 1.386 2.859.192 6.3-2.666 7.686-.81.393-1.665.579-2.507.579z" fill="#eab14d"/></g><g><path d="m409.647 226.534c-1.84 0-3.68-.702-5.084-2.106-6.882-6.882-16.033-10.673-25.766-10.673s-18.883 3.79-25.766 10.673c-2.808 2.808-7.361 2.808-10.169 0s-2.808-7.361 0-10.169c9.598-9.598 22.36-14.885 35.934-14.885 13.575 0 26.336 5.287 35.935 14.885 2.808 2.808 2.808 7.361 0 10.169-1.404 1.403-3.244 2.106-5.084 2.106z" fill="#783c28"/></g><g><path d="m166.733 192.279c-.842 0-1.697-.186-2.506-.578-2.858-1.387-4.052-4.827-2.666-7.686 6.176-12.736 16.731-23.917 29.721-31.482 7.274-4.237 15.081-7.177 22.579-8.503 3.133-.551 6.114 1.535 6.667 4.662.553 3.128-1.534 6.113-4.662 6.667-6.178 1.093-12.677 3.554-18.793 7.116-11.036 6.427-19.971 15.86-25.159 26.561-.995 2.049-3.046 3.243-5.181 3.243z" fill="#eab14d"/></g><g><path d="m241.786 226.534c-1.84 0-3.68-.702-5.084-2.106-6.882-6.882-16.033-10.673-25.766-10.673s-18.883 3.79-25.766 10.673c-2.808 2.808-7.361 2.808-10.169 0s-2.808-7.361 0-10.169c9.598-9.598 22.36-14.885 35.934-14.885s26.336 5.286 35.935 14.885c2.808 2.808 2.808 7.361 0 10.169-1.404 1.403-3.244 2.106-5.084 2.106z" fill="#783c28"/></g><path d="m399.963 294.698c-.007-5.377-6.158-8.393-10.518-5.245-27.409 19.787-61.067 31.452-97.455 31.452-36.387 0-70.046-11.665-97.455-31.452-4.36-3.147-10.511-.132-10.518 5.245v.132c0 23.467 7.487 45.186 20.202 62.898l113.438 42.005c47.241-11.519 82.305-54.116 82.305-104.904.001-.043.001-.087.001-.131z" fill="#a55a3c"/><path d="m399.963 294.698c-.005-5.332-6.052-8.476-10.372-5.35-10.551 7.634-22.033 14.058-34.24 19.081-3.802 30.255-20.123 56.615-43.612 73.727-7.677 5.593-3.578 17.747 5.919 17.578 47.241-11.519 82.305-54.116 82.305-104.904z" fill="#783c28"/><g><path d="m252.022 342.331c-18.784 0-35.731 5.911-47.799 15.394 19.595 27.295 51.603 45.078 87.767 45.078 8.845 0 17.438-1.071 25.665-3.078.455-2.37.701-4.791.701-7.256 0-27.691-29.699-50.138-66.334-50.138z" fill="#dd6938"/></g><g><path d="m269.913 344.339c.114-.025.228-.05.342-.075-5.795-1.25-11.907-1.934-18.233-1.934-18.784 0-35.731 5.911-47.799 15.394 19.595 27.295 51.603 45.078 87.767 45.078 6.209 0 12.29-.539 18.211-1.547-18.03-3.069-34.538-10.604-48.343-21.43-13.309-10.437-8.462-31.847 8.055-35.486z" fill="#d80a61"/></g></g></g></svg>