<svg id="Capa_1" enable-background="new 0 0 512 512" height="512" viewBox="0 0 512 512" width="512" xmlns="http://www.w3.org/2000/svg"><g><g><g><g><g><path d="m19.626 151.016c-4.443-7.866-2.492-17.789 4.597-23.39 35.359-27.94 141.702-105.001 239.02-105.001 100.104 0 156.231 59.899 177.46 195.326 18.228 116.276 51.965 240.626 63.265 280.759 1.879 6.674-3.137 13.29-10.07 13.29h-270.392z" fill="#8f6bdd"/><path d="m493.897 511.995h-270.391l-26.957-47.72c130.243-30.963 227.116-148.046 227.116-287.756 0-12.824-.816-25.461-2.395-37.867 8.274 22.814 14.718 49.185 19.435 79.3 18.222 116.278 51.967 240.621 63.265 280.758 1.873 6.674-3.137 13.285-10.073 13.285z" fill="#8042e0"/><path d="m493.897 511.995h-180.745c78.767-59.269 129.699-153.548 129.699-259.711 0-9.697-.429-19.289-1.255-28.777 18.405 114.649 51.249 235.69 62.37 275.191 1.879 6.675-3.134 13.297-10.069 13.297z" fill="#772dbd"/><g><g><g><g><g><path d="m362.354 493.41c-36.47-223.2-61.149-281.185-61.149-281.185s10.985-96.116-41.375-133.856c-5.075-3.658-12.028-3.272-16.686.905-10.538 9.451-27.697 30.821-30.124 71.092 0 0-144.049-13.048-172.944 142.201-1.729 9.289-7.289 17.525-15.411 22.353-10.16 6.039-21.688 19.527-15.092 49.136 8.404 37.724 69.685 85.7 152.608 73.568v58.385c0 8.831 7.159 15.99 15.99 15.99h168.394c9.867.001 17.38-8.851 15.789-18.589z" fill="#ffe4f3"/><path d="m145.83 203.37c-36.05 17.32-69.33 23.96-77.39 15.87 42.73-64.11 114.03-69.25 137.12-69.14.17.24.32.5.45.77 5.08 10.58-21.86 34.08-60.18 52.5z" fill="#ffcde3"/><path d="m273.319 511.995c20.743-46.758 32.27-98.516 32.27-152.963 0-91.518-32.553-175.432-86.727-240.788 6.559-20.199 16.988-32.427 24.268-38.955 4.665-4.184 11.632-4.571 16.716-.91 52.344 37.752 41.361 133.841 41.361 133.841s24.675 57.994 61.15 281.184c1.591 9.738-5.922 18.59-15.79 18.59z" fill="#ffcde3"/><path d="m190.753 152.226-133.842-149.594c-5.518-6.167-15.571-.587-13.256 7.358l56.164 192.711c1.068 3.663 4.631 6.013 8.417 5.541 8.301-1.036 23.986-4.557 45.1-16.277s32.399-23.168 37.668-29.665c2.403-2.964 2.293-7.231-.251-10.074z" fill="#99faff"/><path d="m55.714 51.352 14.357 49.264c1.739 5.967 8.212 9.194 14.007 6.947.067-.026.135-.052.202-.078 5.157-1.997 7.948-7.584 6.4-12.893l-14.351-49.24c-1.599-5.486-7.246-8.714-12.791-7.333-.069.017-.139.035-.209.052-5.847 1.456-9.301 7.495-7.615 13.281z" fill="#c8faff"/><path d="m191.006 162.304c-5.272 6.496-16.559 17.94-37.668 29.666-21.12 11.716-36.8 15.241-45.105 16.276-3.787.471-7.343-1.883-8.41-5.544l-3.223-11.036c14.237-25.168 15.586-66.57.962-108.725-12.039-34.739-32.28-62.376-54.006-77.146 1.423-5.439 8.881-8.159 13.358-3.159l133.84 149.594c2.542 2.835 2.657 7.103.252 10.074z" fill="#52efff"/><path d="m191.006 162.304c-5.272 6.496-16.559 17.94-37.668 29.666-.126.073-.241.136-.366.199 7.019-27.385 6.569-56.769-2.406-84.855l40.189 44.917c2.541 2.834 2.656 7.102.251 10.073z" fill="#06d0ff"/></g><path d="m223.9 147.638c2.999-12.456 8.666-30.039 18.78-44.227 3.865-5.422 12.363-3.383 13.323 3.205l7.142 49.032c.88 6.042-4.126 11.315-10.206 10.75l-16.752-1.558c-8.485-.789-14.282-8.917-12.287-17.202z" fill="#f7a6c1"/><g fill="#fc709b"><path d="m252.942 166.394-14.132-1.318c7.113-8.619 11.381-19.666 11.381-31.706 0-10.46-3.222-20.168-8.724-28.191.387-.596.795-1.182 1.213-1.768 3.86-5.419 12.364-3.389 13.327 3.201l7.134 49.039c.889 6.036-4.122 11.308-10.199 10.743z"/><circle cx="38.068" cy="335.219" r="8.058"/></g></g></g></g></g></g><path d="m162.181 437.625s45.097-12.82 85.142-66.174c7.806-10.401 24.425-3.559 22.581 9.313-6.219 43.415-29.407 88.669-107.723 115.246z" fill="#ffcde3"/><path d="m167.38 60.531c3.197 7.647 11.838 11.446 19.629 8.62 27.741-10.063 53.252-15.144 76.237-15.144 42.009 0 72.25 11.653 95.158 36.685 1.368 1.495 2.711 3.039 4.03 4.632 5.559 6.717 15.64 7.341 22.155 1.547.079-.07.158-.14.237-.21 6.239-5.546 6.984-15.052 1.656-21.479-29.68-35.802-70.307-52.556-123.236-52.556-28.906 0-58.605 6.802-87.005 17.093-8.305 3.009-12.389 12.373-8.981 20.523z" fill="#ab97f2"/><path d="m243.962 23.613c-5.609.546-11.229 1.317-16.848 2.289-9.013 1.56-14.652 10.662-12.169 19.466.028.101.057.201.085.302 2.163 7.674 9.769 12.434 17.628 11.089 4.872-.834 9.652-1.477 14.34-1.929 8.024-.774 14.078-7.632 13.936-15.691-.002-.107-.004-.214-.006-.321-.153-9.044-7.963-16.081-16.966-15.205z" fill="#c3b9f9"/></g><path d="m114.08 66.53c.05 25.14-5.82 56.99-31.1 78.38l-16.92-58.06c10.06-21.47 10.94-45.5 9.56-63.3z" fill="#ffe059"/><path d="m168.84 182.28c-4.45 3.14-9.59 6.4-15.5 9.68-21.12 11.72-36.8 15.25-45.1 16.28-3.79.47-7.35-1.88-8.42-5.54l-.73-2.52c43.84-31.82 36.85-92.55 32.82-113.72l40.06 44.78v.01c1.44 13.85 1.72 32.55-3.13 51.03z" fill="#ffc751"/><path d="m114.08 66.53c.03 14.61-1.94 31.49-8.57 47.27-1.7-10.08-4.34-20.45-7.95-30.86-5.6-16.17-12.98-30.79-21.46-43.3.11-5.72-.1-11.14-.48-16.09z" fill="#ffc751"/><path d="m168.84 182.28c-4.45 3.14-9.59 6.4-15.5 9.68h-.01c-.07-.08-.2.1-.32.18-.01.02-.03.02-.04.03v-.01c7.02-27.38 6.57-56.76-2.4-84.84l21.4 23.92v.01c1.44 13.85 1.72 32.55-3.13 51.03z" fill="#ffaf40"/><path d="m84.28 107.48c-.07.03-.13.06-.2.08-5.8 2.25-12.27-.98-14.01-6.94l-4.01-13.76v-.01c6.52-13.92 9.19-28.91 9.88-42.59.15.35.28.71.39 1.09l14.35 49.24c1.55 5.31-1.24 10.9-6.4 12.89z" fill="#fff370"/></g><g><g><path d="m143.135 232.694c-8.463 9.322-12.249 22.481-9.3 35.254 1.299 5.629 6.916 9.139 12.545 7.84 5.63-1.298 9.139-6.915 7.84-12.545-1.925-8.343 2.314-17.044 10.08-20.686 7.767-3.643 17.167-1.34 22.351 5.477 3.497 4.599 10.059 5.491 14.658 1.994 4.602-3.493 5.491-10.06 1.994-14.658-11.112-14.612-31.252-19.555-47.886-11.753-4.756 2.228-8.894 5.345-12.282 9.077z" fill="#b55434"/></g><g><path d="m169.755 234.305c-2.492-7.579 4.318-15.093 12.047-13.119 8.359 2.135 16.025 6.984 21.5 14.183 3.497 4.598 2.609 11.165-1.994 14.658-4.599 3.498-11.161 2.605-14.658-1.994-2.446-3.216-5.831-5.421-9.539-6.471-3.507-.993-6.216-3.794-7.356-7.257z" fill="#db765a"/></g></g><path d="m184.412 397.318-42.112 42.112c-33.14 1.16-62.03-7.19-84.4-19.91 0 0 14.334.559 31.73-12.649 15.012-11.398 44.838-60.611 44.838-60.611 14.41-13.787 37.319-13.102 50.878 1.522 13.055 14.079 12.642 35.96-.934 49.536z" fill="#e01152"/><path d="m194.87 372.06c0 9.15-3.5 18.3-10.46 25.26l-13.62 13.62c10.38-26.62.91-56.89-22.44-72.92 12.76-4.04 27.28-.72 37 9.76 6.36 6.86 9.52 15.58 9.52 24.28z" fill="#c40047"/><path d="m194.87 372.06c0 9.15-3.5 18.3-10.46 25.26l-33.01 33.01c-6.12-7.49-9.79-17.06-9.79-27.49 0-24.01 19.47-43.49 43.49-43.49 2.62 0 5.19.23 7.68.68 1.4 3.88 2.09 7.96 2.09 12.03z" fill="#f7a6c1"/><path d="m372.02 264.09c0 30.675-24.867 55.541-55.541 55.541s-55.541-24.867-55.541-55.541c0-22.951 31.094-86.29 46.751-116.731 3.68-7.155 13.9-7.155 17.58 0 15.657 30.44 46.751 93.779 46.751 116.731z" fill="#52efff"/><path d="m372.02 264.09c0 30.67-24.87 55.54-55.54 55.54-5.89 0-11.56-.92-16.89-2.62 21.93-22.13 35.47-52.58 35.47-86.2 0-30.38-11.05-58.16-29.36-79.56.68-1.35 1.35-2.65 1.99-3.89 3.68-7.16 13.9-7.16 17.58 0 15.66 30.44 46.75 93.78 46.75 116.73z" fill="#06d0ff"/><g><path d="m399.514 186.557c13.38 13.36 35.057 13.344 48.417-.036s13.344-35.057-.036-48.417c-10.011-9.996-51.181-24.02-71.278-30.448-4.724-1.511-9.175 2.947-7.657 7.668 6.457 20.088 20.543 61.237 30.554 71.233z" fill="#52efff"/><path d="m391.715 174.59c-4.86-9.46-9.952-22.351-14.343-34.521-2.06-5.709.645-12.038 6.207-14.469.107-.047.215-.094.323-.141 6.15-2.688 13.29.367 15.595 6.671 4.126 11.287 8.796 22.962 13.281 31.77 3.042 5.975.465 13.276-5.681 15.956-.073.032-.146.064-.219.095-5.683 2.483-12.329.155-15.163-5.361z" fill="#99faff"/><path d="m447.927 186.523c13.36-13.38 13.35-35.06-.03-48.42-4.31-4.31-14.43-9.37-26.16-14.25 9.68 6.48 16.05 17.52 16.05 30.04 0 19.34-15.17 35.12-34.26 36.1 13.4 9.8 32.31 8.64 44.4-3.47z" fill="#06d0ff"/></g><path d="m284.562 284.386c5.198-3.233 8.06-9.32 6.866-15.324-.32-1.608-.488-3.271-.488-4.972.166-4.761 4.762-20.944 18.896-52.424 2.896-6.45.842-14.052-4.923-18.146-7.775-5.523-18.654-2.553-22.56 6.148-11.471 25.555-21.413 51.445-21.413 64.423 0 3.761.375 7.435 1.09 10.985 2.023 10.047 13.575 14.885 22.277 9.47.085-.054.17-.107.255-.16z" fill="#99faff"/><path d="m194.87 372.06c0 9.15-3.5 18.3-10.46 25.26l-15.04 15.04c5.61-8.93 8.85-19.49 8.85-30.81 0-7.35-1.37-14.39-3.87-20.86 3.44-.88 7.04-1.34 10.75-1.34 2.62 0 5.19.23 7.68.68 1.4 3.88 2.09 7.96 2.09 12.03z" fill="#fc709b"/></g><g><path d="m450.456 103.799c18.806-1.959 32.464-18.792 30.505-37.598s-18.792-32.464-37.598-30.505c-14.071 1.465-50.918 24.573-68.581 36.116-4.152 2.713-3.499 8.979 1.122 10.778 19.663 7.655 60.481 22.674 74.552 21.209z" fill="#52efff"/><path d="m443.363 35.695c-6.558.685-18.075 6.072-30.29 12.797 25.799-5.045 51.392 10.829 58.07 36.629.636 2.459 1.079 4.927 1.332 7.382 6.181-6.93 9.528-16.349 8.49-26.306-1.963-18.799-18.792-32.458-37.602-30.502z" fill="#06d0ff"/><path d="m407.118 66.913c7.962 2.892 16.773 5.931 25.21 8.507 6.433 1.964 10.16 8.657 8.418 15.153l-.064.239c-1.799 6.71-8.726 10.63-15.419 8.77-8.627-2.398-18.083-5.52-26.893-8.632-6.554-2.315-9.962-9.529-7.603-16.068.044-.121.087-.242.131-.362 2.376-6.585 9.64-9.997 16.22-7.607z" fill="#99faff"/></g></g></svg>